<svg xmlns="http://www.w3.org/2000/svg" width="76" height="76" viewBox="0 0 76 76">
  <defs>
    <style>
      .cls-1 {
        fill: #999a9a;
        fill-rule: evenodd;
      }
    </style>
  </defs>
  <path id="branding" class="cls-1" d="M1090.2,1236h-68.4a3.8,3.8,0,0,0-3.8,3.8V1293a3.8,3.8,0,0,0,3.8,3.8h24.07v5.07a6.34,6.34,0,0,0-6.34,6.33v2.53a1.272,1.272,0,0,0,1.27,1.27h30.4a1.272,1.272,0,0,0,1.27-1.27v-2.53a6.34,6.34,0,0,0-6.34-6.33v-5.07h24.07a3.8,3.8,0,0,0,3.8-3.8v-53.2A3.8,3.8,0,0,0,1090.2,1236Zm-69.67,3.8a1.272,1.272,0,0,1,1.27-1.27h68.4a1.272,1.272,0,0,1,1.27,1.27v44.33h-70.94V1239.8Zm49.4,68.4v1.27h-27.86v-1.27a3.8,3.8,0,0,1,3.8-3.8h20.26A3.8,3.8,0,0,1,1069.93,1308.2Zm-6.33-6.33h-15.2v-5.07h15.2v5.07Zm27.87-8.87a1.272,1.272,0,0,1-1.27,1.27h-68.4a1.272,1.272,0,0,1-1.27-1.27v-6.33h70.94V1293Zm-38-1.27h5.06a1.265,1.265,0,1,0,0-2.53h-5.06A1.265,1.265,0,1,0,1053.47,1291.73Zm31.66,7.6a8.879,8.879,0,0,0-8.86,8.87v1.27a2.527,2.527,0,0,0,2.53,2.53h12.67a2.527,2.527,0,0,0,2.53-2.53v-1.27A8.888,8.888,0,0,0,1085.13,1299.33Zm6.34,10.14H1078.8v-1.27a6.346,6.346,0,0,1,5.07-6.21v2.41a1.265,1.265,0,1,0,2.53,0v-2.41a6.356,6.356,0,0,1,5.07,6.21v1.27Zm-22.86-53.43c0.03-.34.06-0.69,0.06-1.04a12.67,12.67,0,0,0-25.34,0c0,0.35.03,0.7,0.06,1.04a12.659,12.659,0,1,0,12.61,21.74A12.657,12.657,0,1,0,1068.61,1256.04Zm-22.74-1.04a10.13,10.13,0,0,1,20.26,0c0,0.09-.01.17-0.01,0.25a13.292,13.292,0,0,0-2.52-.25,12.587,12.587,0,0,0-7.6,2.56,12.587,12.587,0,0,0-7.6-2.56,13.292,13.292,0,0,0-2.52.25C1045.88,1255.17,1045.87,1255.09,1045.87,1255Zm12.66,12.67a10.1,10.1,0,0,1-2.53,6.68,10.1,10.1,0,0,1-2.53-6.68c0-.09.01-0.17,0.01-0.26a12.579,12.579,0,0,0,5.04,0C1058.52,1267.5,1058.53,1267.58,1058.53,1267.67Zm-2.53-2.54a10.236,10.236,0,0,1-2.14-.23,9.993,9.993,0,0,1,2.14-3.91,9.993,9.993,0,0,1,2.14,3.91A10.236,10.236,0,0,1,1056,1265.13Zm-4.53-1.08a10.186,10.186,0,0,1-5.21-6.28,9.617,9.617,0,0,1,2.14-.24,10.045,10.045,0,0,1,5.71,1.78A12.6,12.6,0,0,0,1051.47,1264.05Zm6.42-4.75a10.111,10.111,0,0,1,5.71-1.77,9.617,9.617,0,0,1,2.14.24,10.186,10.186,0,0,1-5.21,6.28,12.6,12.6,0,0,0-2.64-4.74v-0.01Zm-19.62,8.37a10.108,10.108,0,0,1,5.6-9.05,12.684,12.684,0,0,0,7.12,8.01c-0.03.34-.06,0.69-0.06,1.04a12.639,12.639,0,0,0,3.18,8.36A10.123,10.123,0,0,1,1038.27,1267.67Zm25.33,10.13a10.111,10.111,0,0,1-5.71-1.77,12.639,12.639,0,0,0,3.18-8.36c0-.35-0.03-0.7-0.06-1.04a12.684,12.684,0,0,0,7.12-8.01A10.123,10.123,0,0,1,1063.6,1277.8Zm-36.73-36.73h-2.54a1.265,1.265,0,0,0,0,2.53h2.54A1.265,1.265,0,0,0,1026.87,1241.07Zm13.93,1.26a1.263,1.263,0,0,0-1.27-1.26h-7.6a1.265,1.265,0,0,0,0,2.53h7.6A1.272,1.272,0,0,0,1040.8,1242.33Z" transform="translate(-1018 -1236)"/>
</svg>
