<svg xmlns="http://www.w3.org/2000/svg" width="76" height="76" viewBox="0 0 76 76">
  <defs>
    <style>
      .cls-1 {
        fill: #999a9a;
        fill-rule: evenodd;
      }
    </style>
  </defs>
  <path id="content_writing" data-name="content writing" class="cls-1" d="M1470.2,1236h-35.47a3.8,3.8,0,0,0-3.8,3.8v11.4h-27.86a5.07,5.07,0,0,0-5.07,5.07v38a5.068,5.068,0,0,0,5.07,5.06h17.89l-2.3,5.18a3.8,3.8,0,0,0,.87,7.49h20.27a3.8,3.8,0,0,0,.87-7.49l-2.3-5.18h17.9a5.066,5.066,0,0,0,5.06-5.06v-8.87h8.87a3.8,3.8,0,0,0,3.8-3.8v-41.8A3.8,3.8,0,0,0,1470.2,1236Zm-35.47,2.53h35.47a1.272,1.272,0,0,1,1.27,1.27v6.33h-38v-6.33A1.263,1.263,0,0,1,1434.73,1238.53Zm5.07,70.94h-20.27a1.27,1.27,0,0,1,0-2.54h20.27A1.27,1.27,0,0,1,1439.8,1309.47Zm-1.95-5.07h-16.37l2.25-5.07h11.87Zm18.42-7.6h-25.34v-1.27a1.265,1.265,0,0,0-2.53,0v1.27h-25.33a2.535,2.535,0,0,1-2.54-2.53v-3.8h58.27v3.8A2.527,2.527,0,0,1,1456.27,1296.8Zm2.53-8.87h-58.27v-31.66a2.544,2.544,0,0,1,2.54-2.54h27.86v27.87a3.8,3.8,0,0,0,3.8,3.8h24.07v2.53Zm11.4-5.06h-35.47a1.263,1.263,0,0,1-1.26-1.27v-32.93h38v32.93A1.272,1.272,0,0,1,1470.2,1282.87Zm-32.93-41.8a1.265,1.265,0,0,1,0,2.53A1.265,1.265,0,1,1,1437.27,1241.07Zm5.06,0a1.265,1.265,0,1,1-1.26,1.26A1.263,1.263,0,0,1,1442.33,1241.07Zm5.07,0a1.265,1.265,0,1,1-1.27,1.26A1.263,1.263,0,0,1,1447.4,1241.07Zm21.47,11a0.133,0.133,0,0,0-.03-0.05,1.008,1.008,0,0,0-.12-0.23,1.274,1.274,0,0,0-.13-0.19,2.2,2.2,0,0,0-.18-0.14c-0.07-.05-0.14-0.1-0.21-0.14-0.07-.02-0.14-0.04-0.2-0.06a2.741,2.741,0,0,0-.28-0.05c-0.02,0-.03-0.01-0.05-0.01h-30.4c-0.02,0-.03.01-0.05,0.01a2.741,2.741,0,0,0-.28.05l-0.2.06c-0.07.04-.14,0.09-0.21,0.14a2.2,2.2,0,0,0-.18.14,1.274,1.274,0,0,0-.13.19,1.008,1.008,0,0,0-.12.23c-0.01.02-.02,0.03-0.03,0.05a1.231,1.231,0,0,0-.02.2,1.17,1.17,0,0,0-.05.2v10.13a1.416,1.416,0,0,0,.04.2,1.355,1.355,0,0,0,.02.2c0.01,0.02.02,0.03,0.03,0.05a0.826,0.826,0,0,0,.07.13,1.379,1.379,0,0,0,.17.25,0.573,0.573,0,0,0,.11.11,1.379,1.379,0,0,0,.25.17c0.05,0.02.09,0.04,0.13,0.06a1.342,1.342,0,0,0,.45.1h30.4a1.64,1.64,0,0,0,.44-0.09,0.826,0.826,0,0,0,.13-0.07,1.006,1.006,0,0,0,.25-0.17,0.573,0.573,0,0,0,.11-0.11,0.852,0.852,0,0,0,.17-0.25,0.539,0.539,0,0,0,.07-0.13,0.219,0.219,0,0,0,.03-0.05,1.231,1.231,0,0,0,.02-0.2,0.647,0.647,0,0,0,.04-0.2v-10.13a0.647,0.647,0,0,0-.04-0.2A1.231,1.231,0,0,0,1468.87,1252.07Zm-30.34,2.15,9.93,3.31-9.93,3.31v-6.62Zm6.54-.49h14.79l-7.39,2.47Zm7.4,5.14,7.39,2.46h-14.79Zm4-1.34,9.93-3.31v6.62Zm-19.2,11.4h13.93a1.265,1.265,0,1,0,0-2.53h-13.93A1.265,1.265,0,1,0,1437.27,1268.93Zm30.4-2.53h-11.4a1.265,1.265,0,1,0,0,2.53h11.4A1.265,1.265,0,0,0,1467.67,1266.4Zm0,5.07h-30.4a1.265,1.265,0,1,0,0,2.53h30.4A1.265,1.265,0,0,0,1467.67,1271.47Zm-21.54,5.06h-8.86a1.27,1.27,0,0,0,0,2.54h8.86A1.27,1.27,0,0,0,1446.13,1276.53Zm21.54,0h-15.2a1.27,1.27,0,0,0,0,2.54h15.2A1.27,1.27,0,0,0,1467.67,1276.53ZM1417,1256.27h-11.4a1.265,1.265,0,1,0,0,2.53H1417A1.265,1.265,0,1,0,1417,1256.27Zm7.6,0h-2.53a1.265,1.265,0,1,0,0,2.53h2.53A1.265,1.265,0,1,0,1424.6,1256.27Z" transform="translate(-1398 -1236)"/>
</svg>
