<svg xmlns="http://www.w3.org/2000/svg" width="75" height="75" viewBox="0 0 75 75">
  <defs>
    <style>
      .cls-1 {
        fill: #999a9a;
        fill-rule: evenodd;
      }
    </style>
  </defs>
  <path id="ui_ux" data-name="ui/ux" class="cls-1" d="M701.705,1291.34a16.769,16.769,0,0,0-.03-6.37l5.731-13.82a0.15,0.15,0,0,0,0-.03,23.338,23.338,0,0,1,4.024-6.97,1.877,1.877,0,0,0,.462-1.71l-2.351-10.14a1.417,1.417,0,0,0-.125-0.3c-0.01-.02-0.014-0.04-0.024-0.06a0.977,0.977,0,0,0-.078-0.09,1.469,1.469,0,0,0-.177-0.21c-0.043-.03-0.089-0.05-0.136-0.08s-0.126-.08-0.194-0.12a1.471,1.471,0,0,0-.293-0.07c-0.029,0-.054-0.02-0.083-0.02a1.267,1.267,0,0,0-.689.15l-0.06.03h-0.013l-8.836,5.51a1.866,1.866,0,0,0-.884,1.54,23.492,23.492,0,0,1-2.1,7.79v0.01l-2.864,6.92a16.941,16.941,0,0,0-4.47-1.62,67.4,67.4,0,0,0,.648-12.29,13.611,13.611,0,0,0,3.106-10.01c-0.782-7.29-7.374-12.55-7.655-12.77a1.252,1.252,0,0,0-1.984,1.3c0.645,2.42.087,4.97-4.674,10.22a7.3,7.3,0,0,0-1.715,7.97,9.683,9.683,0,0,0,1.782,2.88c-0.3,1.93-.541,3.76-0.705,5.54a62.549,62.549,0,0,0-.218,8.86,17.171,17.171,0,0,0-3.116,2.17l-6.069-25.92a0.175,0.175,0,0,0-.033-0.07,0.919,0.919,0,0,0-.088-0.24l-6.2-11.44a2.889,2.889,0,0,0-5.429,1.27l-0.47,12.99a1.208,1.208,0,0,0,.031.28v0.06l6.192,26.39a14.141,14.141,0,0,0-2.893.44l-6.812-16.44a2.535,2.535,0,0,0-3.266-1.33l-10.411,4.3a2.508,2.508,0,0,0-1.355,3.27l9.238,22.26a9.992,9.992,0,0,0,.515,19.97H702A10,10,0,1,0,701.705,1291.34Zm-1.276-32.35,5.247-3.27-1.858,4.48a1.252,1.252,0,0,0,2.313.96l1.857-4.48,1.391,6.01a24.636,24.636,0,0,0-3.63,5.99,5.161,5.161,0,0,1-7-2.89A24.742,24.742,0,0,0,700.429,1258.99Zm-2.878,9.81a7.665,7.665,0,0,0,3.12,2.27,7.879,7.879,0,0,0,3.062.65c0.254-.01.507-0.02,0.759-0.05l-3.994,9.62a16.977,16.977,0,0,0-5.373-6.63Zm-17.145-8.93,6.288,0.39c0.038,1.17.025,2.37-.014,3.6a26.33,26.33,0,0,1-6.27-.3c-0.158-.03-0.312-0.04-0.468-0.06,0.125-1.18.278-2.37,0.462-3.63h0Zm-0.6-10.06c3.323-3.66,5.045-6.48,5.445-9.13a16.756,16.756,0,0,1,4.517,8.96,11.188,11.188,0,0,1-2.533,8.14q-3.708-.225-7.335-0.45a5.2,5.2,0,0,1-.1-7.52h0Zm-0.095,16.18,0.363,0.04a36.153,36.153,0,0,0,4.872.42c0.518,0,1.064-.04,1.611-0.09-0.114,1.61-.3,3.29-0.537,5.03-0.309-.02-0.612-0.05-0.922-0.05a16.9,16.9,0,0,0-5.547.96,60.084,60.084,0,0,1,.158-6.31h0Zm-9.68,14.61-3.58-15.23a1.252,1.252,0,0,0-2.437.57l3.218,13.71a15.038,15.038,0,0,0-2.728-.68l-5.493-23.41a5.915,5.915,0,0,0,2.45.53c0.079,0,.163-0.01.243-0.01l0.885,3.77a1.246,1.246,0,0,0,.854.93,1.219,1.219,0,0,0,1.231-.29,1.244,1.244,0,0,0,.352-1.21l-0.886-3.77a5.974,5.974,0,0,0,2.186-1.67l5.584,23.85A17.14,17.14,0,0,0,670.034,1280.6Zm-7.646-27.12a4.152,4.152,0,0,1-4.179-1.67l0.159-4.4a7.318,7.318,0,0,0,1.321.12,5.436,5.436,0,0,0,1.271-.14,6.329,6.329,0,0,0,2.32-1.15l2.108,3.88a4.146,4.146,0,0,1-3,3.36h0Zm-3.428-14.6a0.393,0.393,0,0,1,.431.19l2.683,4.96a4.354,4.354,0,0,1-1.69.93,4.191,4.191,0,0,1-1.928-.09l0.2-5.63A0.381,0.381,0,0,1,658.96,1238.88Zm-9.056,24.96,0.956,2.31-4.631,1.92a1.249,1.249,0,0,0,.482,2.4,1.135,1.135,0,0,0,.479-0.1l4.631-1.91,0.957,2.31-2.316.96a1.247,1.247,0,0,0,.48,2.4,1.3,1.3,0,0,0,.478-0.09l2.317-.96,0.957,2.31-4.634,1.92a1.247,1.247,0,0,0,.481,2.4,1.3,1.3,0,0,0,.478-0.09l4.63-1.92,1.012,2.44a14.529,14.529,0,0,0-8.1,9.85l-9.07-21.84Zm52.091,45H646.931a7.5,7.5,0,1,1,0-15,7.753,7.753,0,0,1,2.142.31,1.23,1.23,0,0,0,1.1-.18,1.255,1.255,0,0,0,.515-0.99,11.887,11.887,0,0,1,19.022-9.26,1.268,1.268,0,0,0,1.1.2,1.29,1.29,0,0,0,.819-0.76,14.392,14.392,0,0,1,27.866,5.06,14.221,14.221,0,0,1-.632,4.22,1.244,1.244,0,0,0,.275,1.21,1.261,1.261,0,0,0,1.189.38,7.834,7.834,0,0,1,1.671-.19A7.5,7.5,0,1,1,702,1308.84Zm-16.663-52.87a1.239,1.239,0,0,0,1-.5,9.363,9.363,0,0,0,1.665-7.36,1.25,1.25,0,0,0-2.107-.58,1.248,1.248,0,0,0-.311,1.23,6.948,6.948,0,0,1-1.242,5.21,1.233,1.233,0,0,0-.118,1.3,1.248,1.248,0,0,0,1.12.7h-0.008Zm-1.646,37.87a6.243,6.243,0,0,0-2.684.63,7.506,7.506,0,0,0-12.971,7.36,1.251,1.251,0,0,0,1.151.76,1.186,1.186,0,0,0,.491-0.1,1.238,1.238,0,0,0,.67-0.68,1.253,1.253,0,0,0-.01-0.96,5.109,5.109,0,0,1-.413-2.01,5,5,0,0,1,9.53-2.12c0.027,0.04.057,0.08,0.088,0.12s0.042,0.08.066,0.12,0.055,0.04.08,0.07a1.435,1.435,0,0,0,.194.16,0.878,0.878,0,0,0,.2.12,0.631,0.631,0,0,0,.226.07,0.639,0.639,0,0,0,.235.04,1.551,1.551,0,0,0,.478-0.08c0.033-.01.066-0.01,0.1-0.02,0.04-.03.079-0.06,0.116-0.09a0.763,0.763,0,0,0,.132-0.07,3.7,3.7,0,0,1,2.322-.82,3.778,3.778,0,0,1,3.4,2.18,1.25,1.25,0,0,0,2.278-1.03A6.274,6.274,0,0,0,683.686,1293.84Zm-24.636-8.68c-0.189.06-4.61,1.59-4.61,6.18a1.252,1.252,0,0,0,2.5,0,4.29,4.29,0,0,1,2.906-3.81,1.255,1.255,0,0,0-.8-2.38v0.01Zm17.612-1.35a1.544,1.544,0,0,0,.3.03,1.252,1.252,0,0,0,1.213-.94,5.336,5.336,0,0,1,5.051-4.06,1.25,1.25,0,1,0-.007-2.5,7.8,7.8,0,0,0-7.471,5.95A1.255,1.255,0,0,0,676.662,1283.81Z" transform="translate(-636.938 -1236.34)"/>
</svg>
